# xmcd
#
# Track frame offsets: 
#        150
#        27002
#        57772
#        91040
#        119295
#        139975
#        169364
#        200244
#        225160
#        253663
#        285086
#
# Disc length: 4057 seconds
#
# Revision: 4
# Processed by: cddbd v1.5.1PL2 Copyright (c) Steve Scherf et al.
# Submitted via: ExactAudioCopy v0.95b4
#
DISCID=8d0fd70b
DTITLE=Various Artist - Straight From The Sixth Ward
DYEAR=2003
DGENRE=Funk
TTITLE0=Lil Rascals - H.I.T.
TTITLE1=Rebirth - Feel Like Funkin It Up (Part II)
TTITLE2=6th Ward Allstars - Get It How You Live
TTITLE3=Treme - Wolverine Blues
TTITLE4=Newbirth - Project Love
TTITLE5=Lil Rascals - Get Your Mind Right
TTITLE6=Rebirth - We Make It Funky
TTITLE7=Treme - Big Leg Woman
TTITLE8=Newbirth - Show Me How Ya Do That Dance
TTITLE9=6th Ward Allstars - Oh! Didn't He Ramble
TTITLE10=E. Kraz - H.I.T.
EXTD=
EXTT0=
EXTT1=
EXTT2=
EXTT3=
EXTT4=
EXTT5=
EXTT6=
EXTT7=
EXTT8=
EXTT9=
EXTT10=
PLAYORDER=
